<?xml version="1.0" encoding="UTF-8"?>
<svg id="_레이어_2" data-name="레이어 2" xmlns="http://www.w3.org/2000/svg" viewBox="0 0 1832.07 1963.43">
  <g id="_레이어_2-2" data-name="레이어 2">
    <g>
      <circle class="cls-1" cx="1793.31" cy="502.4" r="36.73"/>
      <circle class="cls-1" cx="1793.31" cy="630.24" r="36.73"/>
      <path class="cls-1" d="M1787.88,631.66v39.65c0,22.68,21.01,28.39,26.32,7.16l14.96-39.65c3.33-13.32-3.24-27.53-12.73-27.53h-14.96c-7.51,0-13.59,9.12-13.59,20.37Z"/>
      <path class="cls-1" d="M1829.82,808.04c-1.09-19.82-17.74-35.38-37.9-35.38-25.44,2.86-36.45,14.38-37.86,40.33l1.21,222.46c15.24,447.31-384.99,856.8-832.59,851.36C-168.14,1869.57-212.33,288.29,875.24,202.35c1.64,46.54-15.08,128.38,54.35,130.55,9.94,10.12,225.09-124.51,238.54-129.5,27.98-15.07,28.04-58.77,0-73.84,0,0-211.37-122.03-211.37-122.03-35.81-22.02-83,7.14-81.53,49.49.1,7.77-.08,61.5,0,70.62C-99.32,186.45-337.22,1497.96,557.14,1890.68c449.17,200.81,1019.91-30.96,1202-488.05,83.62-171.04,74.32-415.47,70.67-594.59Z"/>
      <path class="cls-1" d="M1297.92,226.5l-50.13-28.94c-23.92-13.81-23.92-48.33,0-62.14l50.13-28.94c11.05-6.38,25.19-2.59,31.57,8.46h0c6.38,11.05,2.59,25.19-8.46,31.57l-34.62,19.99,34.62,19.99c11.05,6.38,14.84,20.51,8.46,31.57h0c-6.38,11.05-20.51,14.84-31.57,8.46Z"/>
    </g>
  </g>
</svg>