<?xml version="1.0" encoding="UTF-8"?>
<svg id="_레이어_2" data-name="레이어 2" xmlns="http://www.w3.org/2000/svg" viewBox="0 0 1520.71 1997.36">
  <g id="_레이어_3" data-name="레이어 3">
    <g>
      <circle class="cls-2" cx="1412.51" cy="393.69" r="28.78"/>
      <circle class="cls-2" cx="1412.51" cy="493.86" r="28.78"/>
      <path class="cls-2" d="M1408.26,494.97v31.07c0,17.77,16.46,22.25,20.63,5.61l11.72-31.07c2.61-10.44-2.54-21.57-9.97-21.57h-11.72c-5.88,0-10.65,7.15-10.65,15.96Z"/>
      <path class="cls-2" d="M1441.12,633.18c-.85-15.53-13.9-27.73-29.7-27.73-19.93,2.24-28.56,11.27-29.67,31.6l.95,174.32c11.94,350.52-301.68,671.39-652.42,667.14-854.78-13.51-889.4-1252.61-37.17-1319.95,1.29,36.47-11.81,100.6,42.59,102.3,7.79,7.93,176.39-97.57,186.92-101.48,21.93-11.81,21.97-46.06,0-57.86,0,0-165.63-95.63-165.63-95.63-28.06-17.25-65.04,5.6-63.89,38.78.08,6.09-.06,48.19,0,55.34C-70.56,146.1-256.98,1173.81,443.84,1481.55c351.97,157.35,799.21-24.26,941.9-382.44,65.52-134.03,58.24-325.56,55.38-465.92Z"/>
      <path class="cls-2" d="M1024.33,177.49l-39.28-22.68c-18.74-10.82-18.74-37.88,0-48.7l39.28-22.68c8.66-5,19.74-2.03,24.74,6.63h0c5,8.66,2.03,19.74-6.63,24.74l-27.13,15.66,27.13,15.66c8.66,5,11.63,16.08,6.63,24.74h0c-5,8.66-16.08,11.63-24.74,6.63Z"/>
      <path class="cls-1" d="M295.14,1755.78c-.6-4.63-6.59-6.33-9.64-2.84l-137.84,137.84L9.54,1752.66c-5.48-4.42-10.32.7-9.43,6.39v232.85c-.1,7.17,11.15,7.17,11.05,0v-221.98l132.59,132.59c1.41,1.41,3.05,1.62,3.91,1.62s2.5-.21,3.91-1.62l132.59-132.59v221.98c-.1,7.17,11.15,7.17,11.05,0v-235.32c0-.23-.04-.57-.08-.8Z"/>
      <path class="cls-1" d="M539.39,1836.62l150.22-75.11c2.13-.95,3.53-3.24,3.3-5.57-.2-2.91-2.92-5.2-5.81-5.04h-283.74c-3.06,0-5.56,2.52-5.52,5.57v235.28c0,3.05,2.48,5.53,5.53,5.53s5.53-2.48,5.53-5.53v-89.88l120.08-60.04,153.83,153.83c5.15,5.24,12.83-2.88,7.81-7.82l-151.23-151.23ZM408.89,1889.52v-127.56h255.12l-255.12,127.56Z"/>
      <path class="cls-1" d="M937.19,1836.62l150.5-75.25c5.53-2.54,2.72-10.74-2.49-10.47-.85,0-1.68.2-2.46.59l-276.06,138.03v-133.09c.1-7.17-11.15-7.17-11.05,0v235.33c-.1,7.17,11.15,7.17,11.05,0v-89.88l120.08-60.04,153.83,153.83c5.15,5.24,12.83-2.88,7.82-7.82l-151.23-151.23Z"/>
      <path class="cls-1" d="M1487.92,1989.35c-.3-.59-.69-1.13-1.16-1.58l-151.35-151.35,149.76-74.88c5.58-2.62,3.63-10.77-2.52-10.61h-283.74c-3.02,0-5.48,2.43-5.53,5.43v235.38s0,.21,0,.21c.09,2.97,2.53,5.36,5.52,5.36h283.76c4.06.29,7.2-4.34,5.25-7.96ZM1204.44,1761.99h255.12l-255.12,127.56v-127.56ZM1204.44,1986.26v-84.36l120.54-60.27,144.63,144.63h-265.17Z"/>
      <circle class="cls-1" cx="1514.45" cy="1757.15" r="6.25"/>
      <circle class="cls-1" cx="1514.45" cy="1778.91" r="6.25"/>
      <path class="cls-1" d="M1513.53,1779.16v6.75c0,3.86,3.58,4.83,4.48,1.22l2.55-6.75c.57-2.27-.55-4.69-2.17-4.69h-2.55c-1.28,0-2.31,1.55-2.31,3.47Z"/>
      <path class="cls-2" d="M710.51,466.63c-14.7-5.53-31.99,2.62-37.11,17.46,0,0-222.84,618.88-222.84,618.88-2.62,7.29-2.25,15.16,1.04,22.17,9.92,22.93,45.8,21.42,53.52-2.52,0,0,222.84-618.87,222.84-618.87,5.58-14.54-2.68-32.14-17.46-37.11Z"/>
      <path class="cls-2" d="M1023.72,481.57c-9.92-22.95-45.8-21.4-53.53,2.52,0,0-222.84,618.87-222.84,618.87-2.62,7.29-2.25,15.16,1.04,22.17,4.6,10.07,15.21,16.72,26.24,16.67,12.19,0,23.16-7.71,27.29-19.19l222.84-618.87c2.62-7.29,2.25-15.16-1.05-22.17Z"/>
    </g>
  </g>
</svg>