<?xml version="1.0" encoding="UTF-8"?>
<svg id="_레이어_2" data-name="레이어 2" xmlns="http://www.w3.org/2000/svg" viewBox="0 0 2681.26 677.09">
  <g id="_레이어_5" data-name="레이어 5">
    <g>
      <circle class="cls-2" cx="618.42" cy="173.25" r="12.67"/>
      <circle class="cls-2" cx="618.42" cy="217.34" r="12.67"/>
      <path class="cls-2" d="M616.55,217.83v13.67c0,7.82,7.24,9.79,9.08,2.47l5.16-13.67c1.15-4.59-1.12-9.49-4.39-9.49h-5.16c-2.59,0-4.69,3.15-4.69,7.03Z"/>
      <path class="cls-2" d="M631.01,278.65c-.37-6.83-6.12-12.2-13.07-12.2-8.77.99-12.57,4.96-13.06,13.91l.42,76.72c5.25,154.26-132.77,295.47-287.12,293.59-376.17-5.94-391.41-551.25-16.36-580.89.57,16.05-5.2,44.27,18.74,45.02,3.43,3.49,77.62-42.94,82.26-44.66,9.65-5.2,9.67-20.27,0-25.46,0,0-72.89-42.08-72.89-42.08-12.35-7.59-28.62,2.46-28.12,17.07.04,2.68-.03,21.21,0,24.35C-34.25,64.3-116.29,516.57,192.13,652c154.9,69.25,351.72-10.68,414.51-168.31,28.83-58.98,25.63-143.27,24.37-205.04Z"/>
      <path class="cls-2" d="M447.59,78.11l-17.29-9.98c-8.25-4.76-8.25-16.67,0-21.43l17.29-9.98c3.81-2.2,8.69-.89,10.89,2.92h0c2.2,3.81.89,8.69-2.92,10.89l-11.94,6.89,11.94,6.89c3.81,2.2,5.12,7.07,2.92,10.89h0c-2.2,3.81-7.07,5.12-10.89,2.92Z"/>
      <path class="cls-1" d="M1185.39,209.01c-.73-5.66-8.04-7.72-11.76-3.46l-168.25,168.25-168.58-168.58c-6.69-5.39-12.59.85-11.51,7.8v284.2c-.12,8.75,13.61,8.75,13.49,0V226.26l161.84,161.84c1.72,1.72,3.73,1.97,4.77,1.97s3.05-.26,4.77-1.98l161.84-161.84v270.94c-.12,8.75,13.61,8.75,13.49,0V209.98c.01-.27-.04-.69-.09-.97Z"/>
      <path class="cls-1" d="M1483.52,307.69l183.35-91.67c2.6-1.16,4.31-3.95,4.03-6.79-.25-3.55-3.57-6.35-7.09-6.16h-346.32c-3.74,0-6.79,3.08-6.74,6.8v287.18c0,3.72,3.03,6.75,6.75,6.75s6.75-3.03,6.75-6.75v-109.71l146.57-73.28,187.76,187.76c6.28,6.39,15.66-3.52,9.54-9.54l-184.58-184.58ZM1324.23,372.25v-155.69h311.39l-311.39,155.69Z"/>
      <path class="cls-1" d="M1969.05,307.69l183.69-91.84c6.75-3.11,3.32-13.11-3.03-12.78-1.04,0-2.05.24-3,.72l-336.94,168.47v-162.44c.12-8.75-13.61-8.75-13.49,0v287.23c-.12,8.75,13.61,8.75,13.49,0v-109.71l146.57-73.28,187.76,187.76c6.28,6.39,15.66-3.51,9.54-9.54l-184.58-184.58Z"/>
      <path class="cls-1" d="M2641.24,494.1c-.36-.72-.84-1.38-1.42-1.93l-184.73-184.73,182.79-91.39c6.81-3.2,4.44-13.15-3.07-12.95h-346.32c-3.68,0-6.68,2.96-6.74,6.63v287.29s0,.26,0,.26c.11,3.63,3.09,6.54,6.74,6.54h346.34c4.96.35,8.78-5.29,6.41-9.72ZM2295.24,216.59h311.39l-311.39,155.69v-155.69ZM2295.24,490.33v-102.96l147.13-73.57,176.53,176.53h-323.66Z"/>
      <circle class="cls-1" cx="2673.63" cy="210.69" r="7.63"/>
      <circle class="cls-1" cx="2673.63" cy="237.25" r="7.63"/>
      <path class="cls-1" d="M2672.5,237.54v8.24c0,4.71,4.36,5.9,5.47,1.49l3.11-8.24c.69-2.77-.67-5.72-2.64-5.72h-3.11c-1.56,0-2.82,1.9-2.82,4.23Z"/>
      <path class="cls-2" d="M309.49,205.35c-6.47-2.43-14.08,1.15-16.33,7.68,0,0-98.07,272.36-98.07,272.36-1.15,3.21-.99,6.67.46,9.76,4.37,10.09,20.15,9.43,23.55-1.11,0,0,98.07-272.35,98.07-272.35,2.45-6.4-1.18-14.15-7.68-16.33Z"/>
      <path class="cls-2" d="M447.32,211.93c-4.36-10.1-20.16-9.42-23.56,1.11,0,0-98.07,272.35-98.07,272.35-1.15,3.21-.99,6.67.46,9.76,2.02,4.43,6.69,7.36,11.55,7.34,5.36,0,10.19-3.39,12.01-8.45l98.07-272.35c1.15-3.21.99-6.67-.46-9.76Z"/>
    </g>
  </g>
</svg>