<?xml version="1.0" encoding="UTF-8"?>
<svg id="_레이어_2" data-name="레이어 2" xmlns="http://www.w3.org/2000/svg" viewBox="0 0 4792.61 776.76">
  <g id="_레이어_8" data-name="레이어 8">
    <g>
      <path class="cls-1" d="M930.15,15.37c-1.89-14.6-20.77-19.94-30.37-8.95l-434.42,434.42L30.06,5.55C12.78-8.36-2.45,7.76.33,25.69v733.83c-.31,22.6,35.15,22.59,34.83,0V59.92l417.88,417.88c4.44,4.44,9.62,5.1,12.31,5.1s7.88-.66,12.32-5.1L895.56,59.92v699.6c-.31,22.6,35.15,22.59,34.83,0V17.89c.03-.71-.11-1.79-.24-2.52Z"/>
      <path class="cls-1" d="M1699.94,270.17l473.42-236.71c6.7-3.01,11.13-10.2,10.41-17.54-.64-9.18-9.21-16.38-18.31-15.9h-894.23c-9.65-.02-17.52,7.95-17.41,17.55v740.98c0,8.23,5.47,15.77,13.52,17.53,11.3,2.47,21.32-6.11,21.32-16.99v-283.27l378.45-189.22,484.81,484.82c16.22,16.5,40.43-9.09,24.63-24.64l-476.6-476.6ZM1288.64,436.87V34.86h804.02l-804.02,402.01Z"/>
      <path class="cls-1" d="M2953.61,270.17l474.3-237.15c17.42-8.02,8.58-33.85-7.84-33-2.69,0-5.29.62-7.75,1.85l-870.01,435V17.45c.31-22.6-35.15-22.59-34.83,0v741.65c-.31,22.6,35.15,22.59,34.83,0v-283.27l378.45-189.22,484.82,484.82c16.22,16.5,40.44-9.08,24.63-24.64l-476.6-476.6Z"/>
      <path class="cls-1" d="M4689.28,751.51c-.94-1.85-2.16-3.55-3.67-4.97l-476.99-476.99,471.97-235.99c17.58-8.25,11.45-33.95-7.93-33.43h-894.22c-9.51,0-17.26,7.65-17.42,17.12v741.81s0,.66,0,.66c.28,9.36,7.98,16.89,17.41,16.89h894.28c12.8.92,22.68-13.66,16.56-25.1ZM3795.86,34.96h804.02l-804.02,402.01V34.96ZM3795.86,741.77v-265.86l379.9-189.95,455.81,455.81h-835.71Z"/>
      <circle class="cls-1" cx="4772.9" cy="19.71" r="19.71"/>
      <circle class="cls-1" cx="4772.9" cy="88.29" r="19.71"/>
      <path class="cls-1" d="M4769.99,89.05v21.27c0,12.17,11.27,15.23,14.12,3.84l8.02-21.27c1.79-7.15-1.74-14.77-6.83-14.77h-8.02c-4.03,0-7.29,4.89-7.29,10.93Z"/>
    </g>
  </g>
</svg>